<svg width="221" height="29" fill="none" xmlns="http://www.w3.org/2000/svg"><path d="M.952 28V1.72h9.684l9.9 21.492h1.224l-.72.648V1.72h5.544V28h-9.756l-9.9-21.492H5.704l.72-.648V28H.952ZM44.08 28v-5.832h-.973v-6.336c0-1.008-.24-1.764-.72-2.268-.48-.504-1.248-.756-2.304-.756a107.513 107.513 0 0 0-4.752.144c-.912.048-1.74.096-2.484.144v-4.86c.552-.048 1.2-.096 1.944-.144a73.92 73.92 0 0 1 4.536-.144c2.016 0 3.708.288 5.076.864 1.392.576 2.448 1.452 3.168 2.628.72 1.152 1.08 2.64 1.08 4.464V28H44.08Zm-6.3.504c-1.417 0-2.665-.252-3.745-.756-1.056-.504-1.884-1.224-2.484-2.16-.6-.96-.9-2.1-.9-3.42 0-1.44.372-2.616 1.116-3.528.744-.936 1.788-1.62 3.132-2.052 1.344-.456 2.892-.684 4.644-.684h4.212v3.204h-4.248c-1.008 0-1.788.252-2.34.756-.528.48-.792 1.14-.792 1.98 0 .792.264 1.44.792 1.944.552.48 1.332.72 2.34.72.648 0 1.224-.108 1.728-.324.528-.24.96-.636 1.296-1.188.336-.552.528-1.32.576-2.304l1.368 1.44c-.12 1.368-.456 2.52-1.008 3.456a5.379 5.379 0 0 1-2.232 2.16c-.936.504-2.088.756-3.456.756Z" fill="#000"/><path d="M65.012 28.684c-2.376 0-4.416-.408-6.12-1.224-1.704-.84-3.096-1.932-4.176-3.276-1.08-1.368-1.884-2.832-2.412-4.392-.504-1.584-.756-3.12-.756-4.608v-.792c0-1.632.264-3.24.792-4.824a13.153 13.153 0 0 1 2.412-4.356c1.104-1.296 2.484-2.328 4.14-3.096 1.68-.792 3.66-1.188 5.94-1.188 2.376 0 4.476.444 6.3 1.332 1.824.888 3.276 2.124 4.356 3.708 1.104 1.56 1.752 3.396 1.944 5.508h-5.94c-.168-1.056-.552-1.956-1.152-2.7-.6-.744-1.38-1.32-2.34-1.728-.936-.408-1.992-.612-3.168-.612-1.176 0-2.22.204-3.132.612a6.343 6.343 0 0 0-2.304 1.728c-.6.744-1.068 1.632-1.404 2.664-.312 1.008-.468 2.136-.468 3.384 0 1.224.156 2.352.468 3.384a8.385 8.385 0 0 0 1.44 2.664 6.604 6.604 0 0 0 2.376 1.728c.936.384 2.004.576 3.204.576 1.824 0 3.36-.444 4.608-1.332 1.272-.888 2.04-2.112 2.304-3.672h5.904a11.706 11.706 0 0 1-1.944 5.292c-1.056 1.584-2.508 2.856-4.356 3.816-1.824.936-3.996 1.404-6.516 1.404ZM91.033 28.684c-1.728 0-3.264-.264-4.608-.792-1.344-.552-2.484-1.296-3.42-2.232a9.728 9.728 0 0 1-2.088-3.204 10.457 10.457 0 0 1-.72-3.852v-.828c0-1.368.24-2.664.72-3.888a9.74 9.74 0 0 1 2.16-3.276c.96-.936 2.112-1.668 3.456-2.196 1.344-.552 2.844-.828 4.5-.828 1.704 0 3.216.276 4.536.828 1.344.528 2.484 1.26 3.42 2.196a9.74 9.74 0 0 1 2.16 3.276 10.11 10.11 0 0 1 .756 3.888v.828c0 1.344-.24 2.628-.72 3.852a9.464 9.464 0 0 1-2.124 3.204c-.912.936-2.04 1.68-3.384 2.232-1.344.528-2.892.792-4.644.792Zm0-4.86c1.128 0 2.064-.24 2.808-.72.744-.48 1.308-1.152 1.692-2.016.408-.864.612-1.824.612-2.88 0-1.128-.204-2.112-.612-2.952a4.902 4.902 0 0 0-1.764-2.052c-.744-.504-1.656-.756-2.736-.756-1.056 0-1.968.252-2.736.756a4.902 4.902 0 0 0-1.764 2.052c-.384.84-.576 1.824-.576 2.952 0 1.056.192 2.016.576 2.88.384.864.96 1.536 1.728 2.016s1.692.72 2.772.72ZM105.925 28V8.272h4.572v8.46h-.324c0-2.016.252-3.696.756-5.04.528-1.344 1.32-2.352 2.376-3.024 1.056-.672 2.34-1.008 3.852-1.008h.252c2.304 0 4.056.756 5.256 2.268 1.224 1.488 1.836 3.756 1.836 6.804V28h-5.76V16.408c0-1.056-.312-1.92-.936-2.592-.624-.672-1.464-1.008-2.52-1.008-1.08 0-1.956.348-2.628 1.044-.648.672-.972 1.56-.972 2.664V28h-5.76ZM138.373 28.252c-1.992 0-3.6-.24-4.824-.72-1.224-.504-2.124-1.332-2.7-2.484-.552-1.176-.828-2.76-.828-4.752V2.944h5.364v17.568c0 .936.24 1.656.72 2.16.504.48 1.212.72 2.124.72h2.916v4.86h-2.772Zm-11.34-15.768V8.272h14.112v4.212h-14.112ZM156.864 28v-5.832h-.972v-6.336c0-1.008-.24-1.764-.72-2.268-.48-.504-1.248-.756-2.304-.756a107.513 107.513 0 0 0-4.752.144c-.912.048-1.74.096-2.484.144v-4.86c.552-.048 1.2-.096 1.944-.144a73.92 73.92 0 0 1 4.536-.144c2.016 0 3.708.288 5.076.864 1.392.576 2.448 1.452 3.168 2.628.72 1.152 1.08 2.64 1.08 4.464V28h-4.572Zm-6.3.504c-1.416 0-2.664-.252-3.744-.756-1.056-.504-1.884-1.224-2.484-2.16-.6-.96-.9-2.1-.9-3.42 0-1.44.372-2.616 1.116-3.528.744-.936 1.788-1.62 3.132-2.052 1.344-.456 2.892-.684 4.644-.684h4.212v3.204h-4.248c-1.008 0-1.788.252-2.34.756-.528.48-.792 1.14-.792 1.98 0 .792.264 1.44.792 1.944.552.48 1.332.72 2.34.72.648 0 1.224-.108 1.728-.324.528-.24.96-.636 1.296-1.188.336-.552.528-1.32.576-2.304l1.368 1.44c-.12 1.368-.456 2.52-1.008 3.456a5.379 5.379 0 0 1-2.232 2.16c-.936.504-2.088.756-3.456.756ZM175.179 28.684c-1.704 0-3.192-.276-4.464-.828-1.248-.576-2.292-1.344-3.132-2.304a9.538 9.538 0 0 1-1.872-3.24 11.876 11.876 0 0 1-.612-3.78v-.684c0-1.344.216-2.628.648-3.852a9.885 9.885 0 0 1 1.908-3.312c.84-.96 1.884-1.716 3.132-2.268 1.272-.552 2.724-.828 4.356-.828 1.776 0 3.348.348 4.716 1.044 1.368.672 2.46 1.62 3.276 2.844.816 1.224 1.272 2.628 1.368 4.212h-5.652c-.096-.888-.456-1.632-1.08-2.232-.6-.624-1.476-.936-2.628-.936-.96 0-1.764.24-2.412.72-.624.48-1.092 1.14-1.404 1.98-.312.84-.468 1.836-.468 2.988 0 1.056.144 2.016.432 2.88.288.84.744 1.5 1.368 1.98.648.456 1.488.684 2.52.684.768 0 1.416-.132 1.944-.396a3.363 3.363 0 0 0 1.296-1.152c.336-.504.54-1.08.612-1.728h5.616c-.072 1.632-.528 3.072-1.368 4.32-.84 1.224-1.956 2.184-3.348 2.88-1.392.672-2.976 1.008-4.752 1.008ZM197.295 28.252c-1.992 0-3.6-.24-4.824-.72-1.224-.504-2.124-1.332-2.7-2.484-.552-1.176-.828-2.76-.828-4.752V2.944h5.364v17.568c0 .936.24 1.656.72 2.16.504.48 1.212.72 2.124.72h2.916v4.86h-2.772Zm-11.34-15.768V8.272h14.112v4.212h-14.112ZM211.288 28.612c-2.808 0-5.004-.576-6.588-1.728-1.584-1.152-2.424-2.772-2.52-4.86h5.112c.096.624.468 1.188 1.116 1.692.672.48 1.668.72 2.988.72 1.008 0 1.836-.168 2.484-.504.672-.36 1.008-.864 1.008-1.512 0-.576-.252-1.032-.756-1.368-.504-.36-1.404-.612-2.7-.756l-1.548-.144c-2.376-.24-4.164-.9-5.364-1.98-1.176-1.08-1.764-2.46-1.764-4.14 0-1.392.348-2.556 1.044-3.492.696-.936 1.656-1.644 2.88-2.124 1.248-.48 2.664-.72 4.248-.72 2.544 0 4.596.564 6.156 1.692 1.56 1.104 2.376 2.712 2.448 4.824h-5.112c-.096-.648-.432-1.188-1.008-1.62-.576-.456-1.428-.684-2.556-.684-.888 0-1.596.168-2.124.504-.528.336-.792.792-.792 1.368 0 .552.228.972.684 1.26.456.288 1.2.492 2.232.612l1.548.144c2.424.264 4.308.936 5.652 2.016 1.344 1.08 2.016 2.532 2.016 4.356 0 1.32-.36 2.472-1.08 3.456-.72.96-1.74 1.704-3.06 2.232-1.32.504-2.868.756-4.644.756Z" fill="#5061FC"/></svg>